<svg width="958" height="229" viewBox="0 0 958 229" fill="none" xmlns="http://www.w3.org/2000/svg">
<path d="M115.576 215.497C171.319 215.497 216.507 170.309 216.507 114.566C216.507 58.8232 171.319 13.6348 115.576 13.6348C59.833 13.6348 14.6445 58.8232 14.6445 114.566C14.6445 170.309 59.833 215.497 115.576 215.497Z" fill="white"/>
<path d="M276.507 53.9268H301.126C313.352 53.9268 321.991 61.903 321.991 73.274C321.991 83.0718 315.533 90.4961 305.735 91.738L324.585 118.565H315.836L298.035 92.8696H284.18V118.565H276.479V53.9268H276.507ZM284.207 86.6321H299.994C308.357 86.6321 314.236 81.333 314.236 73.4672C314.236 65.6013 308.357 60.1918 299.994 60.1918H284.207V86.6321Z" fill="#666666"/>
<path d="M374.182 118.565H368.027L367.061 110.009C363.777 116.164 357.539 119.724 350.142 119.724C339.765 119.724 332.451 112.604 332.451 102.309V71.8115H340.041V101.233C340.041 108.353 345.23 113.266 352.35 113.266C360.437 113.266 366.481 107.111 366.481 98.169V71.8115H374.182V118.565Z" fill="#666666"/>
<path d="M386.739 71.8115H392.894L393.86 79.981C397.144 74.0195 402.913 70.6523 409.923 70.6523C416.933 70.6523 423.088 74.5991 425.323 80.8365C428.966 74.4887 435.038 70.6523 442.435 70.6523C452.426 70.6523 459.464 77.5798 459.464 87.2948V118.565H451.764V88.454C451.764 81.8301 447.044 77.1106 440.31 77.1106C432.527 77.1106 426.952 83.0721 426.952 91.4347V118.565H419.251V88.454C419.251 81.8301 414.532 77.1106 407.715 77.1106C399.932 77.1106 394.357 83.0721 394.357 91.4347V118.565H386.767V71.8115H386.739Z" fill="#666666"/>
<path d="M471.69 71.8115H477.845L478.811 79.981C482.068 74.0195 487.864 70.6523 494.874 70.6523C501.884 70.6523 508.039 74.5991 510.274 80.8365C513.918 74.4887 519.989 70.6523 527.386 70.6523C537.405 70.6523 544.415 77.5798 544.415 87.2948V118.565H536.715V88.454C536.715 81.8301 531.995 77.1106 525.261 77.1106C517.478 77.1106 511.903 83.0721 511.903 91.4347V118.565H504.203V88.454C504.203 81.8301 499.483 77.1106 492.666 77.1106C484.883 77.1106 479.308 83.0721 479.308 91.4347V118.565H471.718V71.8115H471.69Z" fill="#666666"/>
<path d="M576.459 70.6799C588.962 70.6799 597.628 80.3949 597.628 94.3327C597.628 95.2986 597.628 96.1542 597.545 97.1202H561.39C562.052 107.028 568.98 113.845 578.805 113.845C583.028 113.845 587.94 112.604 592.936 109.899L595.337 115.198C589.182 118.289 583.221 119.724 578.032 119.724C563.791 119.724 553.689 109.623 553.689 95.1883C553.689 80.7537 563.128 70.6523 576.487 70.6523L576.459 70.6799ZM561.362 92.2351H590.231C589.955 82.9893 584.352 76.5586 576.487 76.5586C568.124 76.5586 562.162 82.8237 561.39 92.2351H561.362Z" fill="#666666"/>
<path d="M614.408 107.803C614.408 111.253 616.616 113.488 620.094 113.488C621.446 113.488 623.074 113.212 624.703 112.826L625.669 118.898C623.074 119.477 620.563 119.753 618.465 119.753C611.262 119.753 606.818 115.42 606.818 108.493V50.8652H614.408V107.803Z" fill="#666666"/>
<path d="M648.024 70.6797C652.937 70.6797 658.319 71.7285 663.811 73.964L662.073 79.6495C657.27 77.6348 652.634 76.5584 648.604 76.5584C642.532 76.5584 638.613 79.4563 638.613 83.7618C638.613 95.2984 665.357 88.3709 665.357 106.283C665.357 114.176 658.347 119.752 648.052 119.752C642.67 119.752 636.791 118.592 630.637 116.191L632.458 110.506C637.84 112.714 642.946 113.873 647.472 113.873C653.737 113.873 657.85 110.782 657.85 106.283C657.85 94.4428 631.023 101.288 631.023 83.7618C631.023 76.172 638.033 70.6797 648.052 70.6797H648.024Z" fill="#666666"/>
<path d="M674.49 50.8652H682.08V79.2375C685.447 73.7452 690.939 70.6816 697.674 70.6816C709.9 70.6816 718.732 80.8658 718.732 95.2176C718.732 109.569 709.873 119.753 697.674 119.753C690.663 119.753 684.868 116.58 681.611 110.811L680.645 118.594H674.49V50.8652ZM695.852 76.9191C687.683 76.9191 681.997 82.991 681.997 91.4365V98.9435C681.997 107.499 687.683 113.461 695.852 113.461C704.601 113.461 710.949 105.954 710.949 95.19C710.949 84.4262 704.601 76.9191 695.852 76.9191Z" fill="#666666"/>
<path d="M748.484 70.6799C760.987 70.6799 769.653 80.3949 769.653 94.3327C769.653 95.2986 769.653 96.1542 769.57 97.1202H733.415C734.077 107.028 741.005 113.845 750.83 113.845C755.053 113.845 759.966 112.604 764.961 109.899L767.362 115.198C761.208 118.289 755.246 119.724 750.058 119.724C735.816 119.724 725.715 109.623 725.715 95.1883C725.715 80.7537 735.154 70.6523 748.512 70.6523L748.484 70.6799ZM733.387 92.2351H762.257C761.981 82.9893 756.378 76.5586 748.512 76.5586C740.149 76.5586 734.188 82.8237 733.415 92.2351H733.387Z" fill="#666666"/>
<path d="M778.816 71.8128H784.971L785.937 80.6722C788.255 74.7108 793.72 71.04 800.454 71.04C802.193 71.04 804.291 71.316 806.333 71.8128L805.477 78.0779C803.656 77.6915 801.724 77.4155 799.902 77.4155C791.926 77.4155 786.434 83.8738 786.434 93.2852V118.594H778.844V71.8404L778.816 71.8128Z" fill="#666666"/>
<path d="M853.418 119.448C853.418 131.288 843.703 139.734 830.345 139.734C824.853 139.734 818.505 138.381 811.881 135.594L814.199 129.826C819.968 132.337 825.46 133.579 829.793 133.579C839.122 133.579 845.773 127.894 845.773 119.724V111.251C842.489 116.633 836.914 119.724 830.29 119.724C817.98 119.724 809.121 109.54 809.121 95.1883C809.121 80.8365 817.98 70.6523 830.29 70.6523C837.217 70.6523 842.986 73.8263 846.353 79.5946L847.319 71.8115H853.473V119.421L853.418 119.448ZM832.056 113.487C840.143 113.487 845.801 107.525 845.801 98.9694V91.4623C845.801 82.9893 840.115 76.945 832.056 76.945C823.197 76.945 816.959 84.5349 816.959 95.2158C816.959 105.897 823.224 113.487 832.056 113.487Z" fill="#666666"/>
<path d="M885.875 70.6799C898.378 70.6799 907.044 80.3949 907.044 94.3327C907.044 95.2986 907.044 96.1542 906.961 97.1202H870.806C871.468 107.028 878.396 113.845 888.221 113.845C892.444 113.845 897.356 112.604 902.352 109.899L904.753 115.198C898.598 118.289 892.637 119.724 887.448 119.724C873.207 119.724 863.105 109.623 863.105 95.1883C863.105 80.7537 872.544 70.6523 885.903 70.6523L885.875 70.6799ZM870.778 92.2351H899.647C899.371 82.9893 893.768 76.5586 885.903 76.5586C877.54 76.5586 871.579 82.8237 870.806 92.2351H870.778Z" fill="#666666"/>
<path d="M916.208 71.8128H922.363L923.329 80.6722C925.647 74.7108 931.112 71.04 937.846 71.04C939.585 71.04 941.682 71.316 943.725 71.8128L942.869 78.0779C941.048 77.6915 939.116 77.4155 937.294 77.4155C929.318 77.4155 923.825 83.8738 923.825 93.2852V118.594H916.236V71.8404L916.208 71.8128Z" fill="#666666"/>
<path d="M276.509 150.139H298.34C317.963 150.139 331.239 163.221 331.239 182.458C331.239 201.694 317.963 214.777 298.34 214.777H276.509V150.139ZM297.567 156.404H284.402V208.539H297.567C312.664 208.539 323.152 197.775 323.152 182.485C323.152 167.195 312.664 156.431 297.567 156.431V156.404Z" fill="#666666"/>
<path d="M345.616 148.702C348.597 148.702 350.722 150.827 350.722 153.808C350.722 156.789 348.597 158.914 345.616 158.914C342.636 158.914 340.428 156.789 340.428 153.808C340.428 150.827 342.553 148.702 345.616 148.702ZM341.78 168.049H349.37V214.803H341.78V168.049Z" fill="#666666"/>
<path d="M379.674 186.404C382.959 186.404 386.492 186.791 390.162 187.757V182.954C390.162 176.993 385.553 172.77 378.708 172.77C373.713 172.77 368.607 173.929 363.225 176.22L361.1 170.645C367.641 168.134 373.603 166.892 379.564 166.892C390.135 166.892 397.449 173.433 397.449 183.148V205.752C397.449 208.346 398.994 209.974 401.671 209.974C402.444 209.974 403.603 209.781 404.183 209.698L404.762 215.467C403.217 215.743 401.506 215.936 399.767 215.936C394.661 215.936 391.404 212.955 390.825 208.153C387.071 213.066 381.027 215.936 374.569 215.936C365.323 215.936 358.312 209.864 358.312 201.888C358.312 192.09 366.399 186.404 379.674 186.404ZM376.39 210.361C384.477 210.361 390.135 204.592 390.135 196.313V192.366C386.85 191.593 383.676 191.207 380.502 191.207C371.257 191.207 365.792 195.043 365.792 201.391C365.792 206.497 370.318 210.333 376.363 210.333L376.39 210.361Z" fill="#666666"/>
<path d="M411.552 147.048H418.948V191.207L441.083 168.023H450.025L428.967 189.855L450.798 214.777H441.746L423.944 194.491L418.948 199.487V214.777H411.552V147.048Z" fill="#666666"/>
<path d="M475.777 166.865C489.632 166.865 499.54 176.967 499.54 191.401C499.54 205.836 489.632 215.937 475.777 215.937C461.922 215.937 451.931 205.836 451.931 191.401C451.931 176.967 461.839 166.865 475.777 166.865ZM475.777 209.755C485.105 209.755 491.757 202.248 491.757 191.374C491.757 180.499 485.105 172.992 475.777 172.992C466.448 172.992 459.797 180.582 459.797 191.374C459.797 202.165 466.338 209.755 475.777 209.755Z" fill="#666666"/>
<path d="M509.255 168.024H515.41L516.376 176.58C519.549 170.426 525.787 166.865 533.211 166.865C543.589 166.865 551.013 173.986 551.013 184.281V214.778H543.313V185.44C543.313 178.319 538.207 173.324 531.003 173.324C522.917 173.324 516.872 179.478 516.872 188.42V214.778H509.282V168.024H509.255Z" fill="#666666"/>
<path d="M566.77 148.702C569.751 148.702 571.876 150.827 571.876 153.808C571.876 156.789 569.751 158.914 566.77 158.914C563.789 158.914 561.581 156.789 561.581 153.808C561.581 150.827 563.706 148.702 566.77 148.702ZM562.933 168.049H570.523V214.803H562.933V168.049Z" fill="#666666"/>
<path d="M602.706 166.866C615.209 166.866 623.875 176.581 623.875 190.519C623.875 191.485 623.875 192.341 623.792 193.307H587.637C588.299 203.215 595.227 210.032 605.052 210.032C609.275 210.032 614.187 208.79 619.183 206.085L621.584 211.384C615.429 214.476 609.468 215.911 604.279 215.911C590.038 215.911 579.937 205.809 579.937 191.375C579.937 176.94 589.376 166.839 602.734 166.839L602.706 166.866ZM587.609 188.422H616.478C616.202 179.176 610.6 172.745 602.734 172.745C594.371 172.745 588.41 179.01 587.637 188.422H587.609Z" fill="#666666"/>
<path d="M144.719 85.2809C132.437 85.2809 122.419 94.8303 122.419 106.864V128.005H144.719C157.249 128.005 167.13 118.373 167.13 106.864C167.13 95.3547 157.249 85.2809 144.719 85.2809ZM86.4567 128.005H108.812V106.864C108.812 94.8303 98.8212 85.2809 86.4567 85.2809C74.0921 85.2809 63.9631 94.8303 63.9631 106.864C63.9631 118.897 74.1197 128.005 86.4567 128.005ZM217.278 113.902C217.278 57.6539 171.739 12.0596 115.574 12.0596C59.4092 12.0596 13.8701 57.6539 13.8701 113.902C13.8701 170.149 55.8213 212.018 108.84 215.495V141.473H34.8457V128.032H59.1332C54.0549 122.292 51.0466 114.73 51.0466 106.891C51.0466 87.9029 66.9163 72.7232 86.4567 72.7232C94.9021 72.7232 102.602 75.5107 108.812 80.2302V54.0107H122.308V80.2302C128.491 75.5107 136.274 72.7232 144.664 72.7232C164.204 72.7232 179.991 87.9029 179.991 106.891C179.991 114.73 177.093 122.319 172.153 128.032H196.303V141.473H122.308V215.495C175.327 212.018 217.278 167.886 217.278 113.902Z" fill="#9C006B"/>
</svg>
